{
  "source": "C:\\Users\\Peter\\Desktop\\stuff\\MIUN\\quantitative_research\\video_compression\\videos\\BVI-HD\\BVI-HD_CDVL_videos\\ORIG\\Grass_1920x1080_60fps.mp4",
  "output": "C:\\Users\\Peter\\Desktop\\stuff\\MIUN\\quantitative_research\\video_compression\\compressed_videos\\BVI-HD\\vp9\\8\\Grass_1920x1080_60fps_vp9.webm",
  "codec": "vp9",
  "ok": "Input #0, mov,mp4,m4a,3gp,3g2,mj2, from 'C:\\Users\\Peter\\Desktop\\stuff\\MIUN\\quantitative_research\\video_compression\\videos\\BVI-HD\\BVI-HD_CDVL_videos\\ORIG\\Grass_1920x1080_60fps.mp4':\n  Metadata:\n    major_brand     : isom\n    minor_version   : 512\n    compatible_brands: isomiso2avc1mp41\n    encoder         : Lavf54.28.101\n  Duration: 00:00:05.00, start: 0.000000, bitrate: 655968 kb/s\n  Stream #0:0[0x1](und): Video: h264 (High 4:4:4 Predictive) (avc1 / 0x31637661), yuv420p(progressive), 1920x1080, 655963 kb/s, 60 fps, 60 tbr, 60 tbn (default)\n    Metadata:\n      handler_name    : VideoHandler\n      vendor_id       : [0][0][0][0]\n[out#0/webm @ 0000021917e893c0] Codec AVOption b:a (set bitrate (in bits/s)) has not been used for any stream. The most likely reason is either wrong type (e.g. a video option with no video streams) or that it is a private option of some decoder which was not actually used for any stream.\nStream mapping:\n  Stream #0:0 -> #0:0 (h264 (native) -> vp9 (libvpx-vp9))\nPress [q] to stop, [?] for help\n[libvpx-vp9 @ 000002191a0a0300] v1.15.2-100-g40561f514\nOutput #0, webm, to 'C:\\Users\\Peter\\Desktop\\stuff\\MIUN\\quantitative_research\\video_compression\\compressed_videos\\BVI-HD\\vp9\\8\\Grass_1920x1080_60fps_vp9.webm':\n  Metadata:\n    major_brand     : isom\n    minor_version   : 512\n    compatible_brands: isomiso2avc1mp41\n    encoder         : Lavf62.3.100\n  Stream #0:0(und): Video: vp9, yuv420p(tv, progressive), 1920x1080, q=2-31, 8000 kb/s, 60 fps, 1k tbn (default)\n    Metadata:\n      encoder         : Lavc62.11.100 libvpx-vp9\n      handler_name    : VideoHandler\n      vendor_id       : [0][0][0][0]\n    Side data:\n      cpb: bitrate max/min/avg: 0/0/0 buffer size: 8000000 vbv_delay: N/A\nframe=    0 fps=0.0 q=0.0 size=       0KiB time=N/A bitrate=N/A speed=N/A elapsed=0:00:00.51    \nframe=    0 fps=0.0 q=0.0 size=       0KiB time=N/A bitrate=N/A speed=N/A elapsed=0:00:01.07    \nframe=    4 fps=2.5 q=46.0 size=       1KiB time=00:00:00.06 bitrate=  76.0kbits/s speed=0.0416x elapsed=0:00:01.60    \nframe=    8 fps=3.8 q=45.0 size=       1KiB time=00:00:00.13 bitrate=  38.0kbits/s speed=0.0628x elapsed=0:00:02.12    \nframe=   11 fps=4.2 q=45.0 size=       1KiB time=00:00:00.18 bitrate=  27.6kbits/s speed=0.0694x elapsed=0:00:02.64    \nframe=   14 fps=4.4 q=45.0 size=       1KiB time=00:00:00.23 bitrate=  21.7kbits/s speed=0.0738x elapsed=0:00:03.16    \nframe=   17 fps=4.6 q=41.0 size=       1KiB time=00:00:00.28 bitrate=  17.9kbits/s speed=0.0769x elapsed=0:00:03.68    \nframe=   20 fps=4.8 q=46.0 size=       1KiB time=00:00:00.33 bitrate=  15.2kbits/s speed=0.0793x elapsed=0:00:04.20    \nframe=   24 fps=5.1 q=46.0 size=       1KiB time=00:00:00.40 bitrate=  12.7kbits/s speed=0.0848x elapsed=0:00:04.71    \nframe=   26 fps=5.0 q=41.0 size=       1KiB time=00:00:00.43 bitrate=  11.7kbits/s speed=0.0826x elapsed=0:00:05.24    \nframe=   29 fps=5.0 q=41.0 size=       1KiB time=00:00:00.48 bitrate=  10.5kbits/s speed=0.0836x elapsed=0:00:05.78    \nframe=   32 fps=5.1 q=46.0 size=       1KiB time=00:00:00.53 bitrate=   9.5kbits/s speed=0.0848x elapsed=0:00:06.28    \nframe=   36 fps=5.3 q=46.0 size=       1KiB time=00:00:00.60 bitrate=   8.4kbits/s speed=0.0882x elapsed=0:00:06.80    \nframe=   38 fps=5.2 q=44.0 size=       1KiB time=00:00:00.63 bitrate=   8.0kbits/s speed=0.0864x elapsed=0:00:07.33    \nframe=   42 fps=5.3 q=46.0 size=       1KiB time=00:00:00.70 bitrate=   7.2kbits/s speed=0.0889x elapsed=0:00:07.87    \nframe=   45 fps=5.3 q=43.0 size=       1KiB time=00:00:00.75 bitrate=   6.8kbits/s speed=0.0891x elapsed=0:00:08.41    \nframe=   48 fps=5.4 q=47.0 size=       1KiB time=00:00:00.80 bitrate=   6.3kbits/s speed=0.0895x elapsed=0:00:08.93    \nframe=   51 fps=5.4 q=39.0 size=       1KiB time=00:00:00.85 bitrate=   6.0kbits/s speed=0.0896x elapsed=0:00:09.48    \nframe=   55 fps=5.5 q=43.0 size=       1KiB time=00:00:00.91 bitrate=   5.5kbits/s speed=0.0916x elapsed=0:00:10.01    \nframe=   58 fps=5.5 q=47.0 size=       1KiB time=00:00:00.96 bitrate=   5.2kbits/s speed=0.0918x elapsed=0:00:10.53    \nframe=   60 fps=5.4 q=47.0 size=       1KiB time=00:00:01.00 bitrate=   5.1kbits/s speed=0.0903x elapsed=0:00:11.07    \nframe=   64 fps=5.5 q=44.0 size=       1KiB time=00:00:01.06 bitrate=   4.7kbits/s speed=0.0918x elapsed=0:00:11.61    \nframe=   68 fps=5.6 q=46.0 size=       1KiB time=00:00:01.13 bitrate=   4.5kbits/s speed=0.0932x elapsed=0:00:12.16    \nframe=   71 fps=5.6 q=42.0 size=       1KiB time=00:00:01.18 bitrate=   4.3kbits/s speed=0.0932x elapsed=0:00:12.69    \nframe=   74 fps=5.6 q=41.0 size=       1KiB time=00:00:01.23 bitrate=   4.1kbits/s speed=0.0933x elapsed=0:00:13.22    \nframe=   77 fps=5.6 q=41.0 size=       1KiB time=00:00:01.28 bitrate=   3.9kbits/s speed=0.0932x elapsed=0:00:13.76    \nframe=   81 fps=5.7 q=42.0 size=       1KiB time=00:00:01.35 bitrate=   3.8kbits/s speed=0.0946x elapsed=0:00:14.27    \nframe=   84 fps=5.7 q=47.0 size=       1KiB time=00:00:01.40 bitrate=   3.6kbits/s speed=0.0946x elapsed=0:00:14.80    \nframe=   87 fps=5.7 q=38.0 size=       1KiB time=00:00:01.45 bitrate=   3.5kbits/s speed=0.0945x elapsed=0:00:15.34    \nframe=   90 fps=5.7 q=45.0 size=       1KiB time=00:00:01.50 bitrate=   3.4kbits/s speed=0.0945x elapsed=0:00:15.86    \nframe=   94 fps=5.7 q=47.0 size=       1KiB time=00:00:01.56 bitrate=   3.2kbits/s speed=0.0956x elapsed=0:00:16.38    \nframe=   96 fps=5.7 q=47.0 size=       1KiB time=00:00:01.60 bitrate=   3.2kbits/s speed=0.0946x elapsed=0:00:16.90    \nframe=  100 fps=5.7 q=43.0 size=       1KiB time=00:00:01.66 bitrate=   3.0kbits/s speed=0.0956x elapsed=0:00:17.43    \nframe=  104 fps=5.8 q=46.0 size=       1KiB time=00:00:01.73 bitrate=   2.9kbits/s speed=0.0963x elapsed=0:00:17.99    \nframe=  108 fps=5.8 q=47.0 size=       1KiB time=00:00:01.80 bitrate=   2.8kbits/s speed=0.0971x elapsed=0:00:18.54    \nframe=  110 fps=5.8 q=41.0 size=       1KiB time=00:00:01.83 bitrate=   2.8kbits/s speed=0.096x elapsed=0:00:19.08    \nframe=  114 fps=5.8 q=45.0 size=       1KiB time=00:00:01.90 bitrate=   2.7kbits/s speed=0.0969x elapsed=0:00:19.60    \nframe=  118 fps=5.9 q=48.0 size=       1KiB time=00:00:01.96 bitrate=   2.6kbits/s speed=0.0977x elapsed=0:00:20.12    \nframe=  120 fps=5.8 q=40.0 size=       1KiB time=00:00:02.00 bitrate=   2.5kbits/s speed=0.0968x elapsed=0:00:20.66    \nframe=  124 fps=5.9 q=45.0 size=       1KiB time=00:00:02.06 bitrate=   2.5kbits/s speed=0.0975x elapsed=0:00:21.18    \nframe=  128 fps=5.9 q=47.0 size=       1KiB time=00:00:02.13 bitrate=   2.4kbits/s speed=0.0983x elapsed=0:00:21.71    \nframe=  130 fps=5.8 q=41.0 size=    2560KiB time=00:00:02.16 bitrate=9679.2kbits/s speed=0.0974x elapsed=0:00:22.25    \nframe=  134 fps=5.9 q=46.0 size=    2560KiB time=00:00:02.23 bitrate=9390.2kbits/s speed=0.098x elapsed=0:00:22.79    \nframe=  138 fps=5.9 q=48.0 size=    2560KiB time=00:00:02.30 bitrate=9118.1kbits/s speed=0.0986x elapsed=0:00:23.32    \nframe=  141 fps=5.9 q=49.0 size=    2560KiB time=00:00:02.35 bitrate=8924.1kbits/s speed=0.0985x elapsed=0:00:23.84    \nframe=  144 fps=5.9 q=40.0 size=    2560KiB time=00:00:02.40 bitrate=8738.1kbits/s speed=0.0985x elapsed=0:00:24.35    \nframe=  147 fps=5.9 q=44.0 size=    2560KiB time=00:00:02.45 bitrate=8559.8kbits/s speed=0.0984x elapsed=0:00:24.89    \nframe=  151 fps=5.9 q=46.0 size=    2560KiB time=00:00:02.51 bitrate=8333.1kbits/s speed=0.099x elapsed=0:00:25.42    \nframe=  153 fps=5.9 q=40.0 size=    2560KiB time=00:00:02.55 bitrate=8224.1kbits/s speed=0.0983x elapsed=0:00:25.95    \nframe=  157 fps=5.9 q=44.0 size=    2560KiB time=00:00:02.61 bitrate=8014.6kbits/s speed=0.0989x elapsed=0:00:26.46    \nframe=  161 fps=6.0 q=45.0 size=    2560KiB time=00:00:02.68 bitrate=7815.5kbits/s speed=0.0993x elapsed=0:00:27.02    \nframe=  163 fps=5.9 q=47.0 size=    2560KiB time=00:00:02.71 bitrate=7719.6kbits/s speed=0.0986x elapsed=0:00:27.56    \nframe=  166 fps=5.9 q=37.0 size=    2560KiB time=00:00:02.76 bitrate=7580.1kbits/s speed=0.0985x elapsed=0:00:28.09    \nframe=  169 fps=5.9 q=43.0 size=    2560KiB time=00:00:02.81 bitrate=7445.5kbits/s speed=0.0984x elapsed=0:00:28.62    \nframe=  172 fps=5.9 q=39.0 size=    2560KiB time=00:00:02.86 bitrate=7315.6kbits/s speed=0.0982x elapsed=0:00:29.18    \nframe=  175 fps=5.9 q=48.0 size=    2560KiB time=00:00:02.91 bitrate=7190.2kbits/s speed=0.0981x elapsed=0:00:29.72    \nframe=  175 fps=5.8 q=48.0 size=    2560KiB time=00:00:02.91 bitrate=7190.2kbits/s speed=0.0962x elapsed=0:00:30.33    \nframe=  177 fps=5.7 q=38.0 size=    2560KiB time=00:00:02.95 bitrate=7109.0kbits/s speed=0.0955x elapsed=0:00:30.89    \nframe=  180 fps=5.7 q=41.0 size=    2560KiB time=00:00:02.98 bitrate=7029.6kbits/s speed=0.0949x elapsed=0:00:31.44    \nframe=  181 fps=5.6 q=43.0 size=    2560KiB time=00:00:03.01 bitrate=6951.9kbits/s speed=0.0939x elapsed=0:00:32.13    \nframe=  184 fps=5.6 q=42.0 size=    2560KiB time=00:00:03.06 bitrate=6838.5kbits/s speed=0.0937x elapsed=0:00:32.71    \nframe=  187 fps=5.6 q=45.0 size=    2560KiB time=00:00:03.11 bitrate=6728.8kbits/s speed=0.0937x elapsed=0:00:33.26    \nframe=  187 fps=5.5 q=45.0 size=    2560KiB time=00:00:03.11 bitrate=6728.8kbits/s speed=0.0921x elapsed=0:00:33.82    \nframe=  190 fps=5.5 q=37.0 size=    2560KiB time=00:00:03.16 bitrate=6622.6kbits/s speed=0.0922x elapsed=0:00:34.34    \nframe=  193 fps=5.5 q=44.0 size=    2560KiB time=00:00:03.21 bitrate=6519.6kbits/s speed=0.0922x elapsed=0:00:34.87    \nframe=  197 fps=5.6 q=45.0 size=    2560KiB time=00:00:03.28 bitrate=6387.3kbits/s speed=0.0927x elapsed=0:00:35.43    \nframe=  199 fps=5.5 q=46.0 size=    2560KiB time=00:00:03.31 bitrate=6323.1kbits/s speed=0.0922x elapsed=0:00:35.98    \nframe=  201 fps=5.5 q=39.0 size=    2560KiB time=00:00:03.35 bitrate=6260.2kbits/s speed=0.0916x elapsed=0:00:36.55    \nframe=  203 fps=5.5 q=41.0 size=    2560KiB time=00:00:03.38 bitrate=6198.5kbits/s speed=0.0912x elapsed=0:00:37.11    \nframe=  205 fps=5.4 q=43.0 size=    2560KiB time=00:00:03.41 bitrate=6138.0kbits/s speed=0.0907x elapsed=0:00:37.65    \nframe=  208 fps=5.4 q=40.0 size=    2560KiB time=00:00:03.45 bitrate=6078.7kbits/s speed=0.0903x elapsed=0:00:38.21    \nframe=  210 fps=5.4 q=39.0 size=    2560KiB time=00:00:03.50 bitrate=5991.9kbits/s speed=0.0902x elapsed=0:00:38.81    \nframe=  211 fps=5.4 q=46.0 size=    2560KiB time=00:00:03.51 bitrate=5963.5kbits/s speed=0.0894x elapsed=0:00:39.35    \nframe=  213 fps=5.3 q=40.0 size=    2560KiB time=00:00:03.55 bitrate=5907.5kbits/s speed=0.0889x elapsed=0:00:39.94    \nframe=  215 fps=5.3 q=42.0 size=    2560KiB time=00:00:03.58 bitrate=5852.5kbits/s speed=0.0885x elapsed=0:00:40.48    \nframe=  218 fps=5.3 q=40.0 size=    2560KiB time=00:00:03.63 bitrate=5772.0kbits/s speed=0.0885x elapsed=0:00:41.03    \nframe=  220 fps=5.3 q=40.0 size=    2560KiB time=00:00:03.66 bitrate=5719.5kbits/s speed=0.0882x elapsed=0:00:41.55    \nframe=  222 fps=5.3 q=39.0 size=    2560KiB time=00:00:03.70 bitrate=5668.0kbits/s speed=0.0879x elapsed=0:00:42.07    \nframe=  223 fps=5.2 q=46.0 size=    2560KiB time=00:00:03.71 bitrate=5642.6kbits/s speed=0.0872x elapsed=0:00:42.60    \nframe=  225 fps=5.2 q=39.0 size=    2560KiB time=00:00:03.75 bitrate=5592.4kbits/s speed=0.0868x elapsed=0:00:43.18    \nframe=  227 fps=5.2 q=41.0 size=    2560KiB time=00:00:03.78 bitrate=5543.1kbits/s speed=0.0865x elapsed=0:00:43.73    \nframe=  229 fps=5.2 q=43.0 size=    2560KiB time=00:00:03.81 bitrate=5494.7kbits/s speed=0.0862x elapsed=0:00:44.29    \nframe=  232 fps=5.2 q=37.0 size=    2560KiB time=00:00:03.86 bitrate=5423.7kbits/s speed=0.0863x elapsed=0:00:44.82    \nframe=  234 fps=5.2 q=36.0 size=    2560KiB time=00:00:03.90 bitrate=5377.3kbits/s speed=0.0859x elapsed=0:00:45.39    \nframe=  235 fps=5.1 q=48.0 size=    2560KiB time=00:00:03.91 bitrate=5354.4kbits/s speed=0.0852x elapsed=0:00:45.94    \nframe=  237 fps=5.1 q=38.0 size=    2560KiB time=00:00:03.95 bitrate=5309.2kbits/s speed=0.0849x elapsed=0:00:46.50    \nframe=  240 fps=5.1 q=40.0 size=    2560KiB time=00:00:04.00 bitrate=5242.9kbits/s speed=0.085x elapsed=0:00:47.05    \nframe=  243 fps=5.1 q=45.0 size=    2560KiB time=00:00:04.05 bitrate=5178.2kbits/s speed=0.085x elapsed=0:00:47.63    \nframe=  245 fps=5.1 q=46.0 size=    2560KiB time=00:00:04.08 bitrate=5135.9kbits/s speed=0.0846x elapsed=0:00:48.26    \nframe=  246 fps=5.0 q=28.0 size=    2560KiB time=00:00:04.08 bitrate=5135.9kbits/s speed=0.0836x elapsed=0:00:48.83    \nframe=  248 fps=5.0 q=36.0 size=    2560KiB time=00:00:04.13 bitrate=5073.8kbits/s speed=0.0837x elapsed=0:00:49.40    \nframe=  250 fps=5.0 q=39.0 size=    2560KiB time=00:00:04.16 bitrate=5033.2kbits/s speed=0.0835x elapsed=0:00:49.92    \nframe=  253 fps=5.0 q=45.0 size=    2560KiB time=00:00:04.21 bitrate=4973.5kbits/s speed=0.0835x elapsed=0:00:50.47    \nframe=  255 fps=5.0 q=46.0 size=    2560KiB time=00:00:04.25 bitrate=4934.5kbits/s speed=0.0833x elapsed=0:00:51.05    \nframe=  256 fps=5.0 q=37.0 size=    2560KiB time=00:00:04.26 bitrate=4915.2kbits/s speed=0.0827x elapsed=0:00:51.57    \nframe=  258 fps=4.9 q=46.0 size=    5120KiB time=00:00:04.30 bitrate=9754.2kbits/s speed=0.0824x elapsed=0:00:52.16    \nframe=  261 fps=5.0 q=39.0 size=    5120KiB time=00:00:04.35 bitrate=9642.1kbits/s speed=0.0826x elapsed=0:00:52.68    \nframe=  264 fps=5.0 q=44.0 size=    5120KiB time=00:00:04.40 bitrate=9532.5kbits/s speed=0.0826x elapsed=0:00:53.25    \nframe=  266 fps=4.9 q=47.0 size=    5120KiB time=00:00:04.43 bitrate=9460.8kbits/s speed=0.0823x elapsed=0:00:53.86    \nframe=  268 fps=4.9 q=51.0 size=    5120KiB time=00:00:04.46 bitrate=9390.2kbits/s speed=0.0821x elapsed=0:00:54.41    \nframe=  269 fps=4.9 q=28.0 size=    5120KiB time=00:00:04.48 bitrate=9355.3kbits/s speed=0.0815x elapsed=0:00:55.01    \nframe=  271 fps=4.9 q=35.0 size=    5120KiB time=00:00:04.51 bitrate=9286.3kbits/s speed=0.0812x elapsed=0:00:55.64    \nframe=  272 fps=4.8 q=41.0 size=    5120KiB time=00:00:04.53 bitrate=9252.1kbits/s speed=0.0806x elapsed=0:00:56.24    \nframe=  274 fps=4.8 q=43.0 size=    5120KiB time=00:00:04.56 bitrate=9184.6kbits/s speed=0.0804x elapsed=0:00:56.83    \nframe=  276 fps=4.8 q=45.0 size=    5120KiB time=00:00:04.60 bitrate=9118.1kbits/s speed=0.0801x elapsed=0:00:57.42    \nframe=  276 fps=4.8 q=45.0 size=    5120KiB time=00:00:04.60 bitrate=9118.1kbits/s speed=0.0792x elapsed=0:00:58.05    \nframe=  276 fps=4.7 q=45.0 size=    5120KiB time=00:00:04.60 bitrate=9118.1kbits/s speed=0.0784x elapsed=0:00:58.69    \nframe=  276 fps=4.7 q=45.0 size=    5120KiB time=00:00:04.60 bitrate=9118.1kbits/s speed=0.0776x elapsed=0:00:59.27    \nframe=  276 fps=4.6 q=45.0 size=    5120KiB time=00:00:04.60 bitrate=9118.1kbits/s speed=0.0768x elapsed=0:00:59.86    \nframe=  276 fps=4.6 q=45.0 size=    5120KiB time=00:00:04.60 bitrate=9118.1kbits/s speed=0.076x elapsed=0:01:00.53    \nframe=  276 fps=4.5 q=45.0 size=    5120KiB time=00:00:04.60 bitrate=9118.1kbits/s speed=0.0753x elapsed=0:01:01.10    \nframe=  276 fps=4.5 q=45.0 size=    5120KiB time=00:00:04.60 bitrate=9118.1kbits/s speed=0.0745x elapsed=0:01:01.71    \nframe=  276 fps=4.4 q=45.0 size=    5120KiB time=00:00:04.60 bitrate=9118.1kbits/s speed=0.0738x elapsed=0:01:02.28    \nframe=  276 fps=4.4 q=45.0 size=    5120KiB time=00:00:04.60 bitrate=9118.1kbits/s speed=0.0732x elapsed=0:01:02.85    \nframe=  276 fps=4.4 q=45.0 size=    5120KiB time=00:00:04.60 bitrate=9118.1kbits/s speed=0.0726x elapsed=0:01:03.38    \nframe=  276 fps=4.3 q=45.0 size=    5120KiB time=00:00:04.60 bitrate=9118.1kbits/s speed=0.0719x elapsed=0:01:03.96    \nframe=  276 fps=4.3 q=45.0 size=    5120KiB time=00:00:04.60 bitrate=9118.1kbits/s speed=0.0713x elapsed=0:01:04.52    \nframe=  276 fps=4.2 q=45.0 size=    5120KiB time=00:00:04.60 bitrate=9118.1kbits/s speed=0.0707x elapsed=0:01:05.08    \n[out#0/webm @ 0000021917e893c0] video:6305KiB audio:0KiB subtitle:0KiB other streams:0KiB global headers:0KiB muxing overhead: 0.045338%\nframe=  300 fps=4.6 q=43.0 Lsize=    6308KiB time=00:00:05.00 bitrate=10334.3kbits/s speed=0.0763x elapsed=0:01:05.56    \n",
  "seconds": 65.93551850318909,
  "probe_out": {}
}